<svg class="MuiSvgIcon-root MuiSvgIcon-fontSizeMedium css-vekkpm" focusable="false" aria-hidden="true" viewBox="0 0 70 70" fill="none" xmlns="http://www.w3.org/2000/svg"><path d="M65.0195 25.9456C64.8948 25.8209 64.768 25.6992 64.6402 25.5789V21.6386C64.6402 17.7203 61.4525 14.5326 57.5343 14.5326H45.0697V10.9615C45.0697 7.14897 41.968 4.04736 38.1556 4.04736H26.4849C22.6723 4.04736 19.5707 7.14897 19.5707 10.9615V14.5326H7.10596C3.18773 14.5326 0 17.7203 0 21.6386V53.2686C0 57.1868 3.18773 60.3745 7.10596 60.3745H21.9421C22.5084 60.3745 22.9675 59.9154 22.9675 59.3491C22.9675 58.7829 22.5084 58.3238 21.9421 58.3238H7.10596C4.3184 58.3238 2.05064 56.056 2.05064 53.2684V32.5829C4.0585 35.5612 7.36135 37.5973 11.145 37.8777V41.611C11.145 43.7431 12.8797 45.4778 15.0119 45.4778C17.1441 45.4778 18.8788 43.7431 18.8788 41.611V37.9112H36.0136C36.0136 37.9276 36.0131 37.9439 36.0131 37.9603C36.0131 41.452 37.0602 44.7823 39.0041 47.5945L36.8272 49.7713C36.0671 49.5562 35.2153 49.7462 34.6183 50.3435L26.2567 58.7051C24.6016 60.3602 24.6016 63.0533 26.2567 64.7084C27.9156 66.3673 30.6009 66.3676 32.26 64.7084L40.6216 56.3468C41.2188 55.7496 41.4088 54.898 41.1938 54.1378L43.3725 51.9591C49.1343 55.9273 56.8146 55.9399 62.5897 51.9912V53.2686C62.5897 56.0561 60.322 58.3239 57.5344 58.3239H41.3381C40.7719 58.3239 40.3128 58.783 40.3128 59.3493C40.3128 59.9156 40.7719 60.3747 41.3381 60.3747H57.5343C61.4525 60.3747 64.6402 57.1869 64.6402 53.2687V50.342C64.7679 50.2219 64.8947 50.1003 65.0195 49.9754C71.6598 43.3351 71.6606 32.5867 65.0195 25.9456ZM21.6213 10.9615C21.6213 8.27977 23.803 6.09801 26.4847 6.09801H38.1555C40.8372 6.09801 43.019 8.27977 43.019 10.9615V14.5326H40.8316V10.9615C40.8316 9.4859 39.6311 8.28537 38.1555 8.28537H26.4847C25.0091 8.28537 23.8086 9.4859 23.8086 10.9615V14.5326H21.6213V10.9615ZM25.8593 14.5326V10.9615C25.8593 10.6167 26.1398 10.3362 26.4847 10.3362H38.1555C38.5004 10.3362 38.781 10.6167 38.781 10.9615V14.5326H25.8593ZM16.8282 38.4593H13.1958V35.0075C13.1958 34.006 14.0105 33.1913 15.012 33.1913C16.0135 33.1913 16.8282 34.006 16.8282 35.0075V38.4593ZM15.012 43.4273C14.0105 43.4273 13.1958 42.6126 13.1958 41.6111V40.51H16.8282V41.6111C16.8282 42.6126 16.0135 43.4273 15.012 43.4273ZM18.8788 35.8607V35.0075C18.8788 32.8753 17.1441 31.1406 15.0119 31.1406C12.8797 31.1406 11.145 32.8753 11.145 35.0075V35.8183C6.05459 35.3622 2.05064 31.0747 2.05064 25.8677V21.6386C2.05064 18.851 4.3184 16.5832 7.10596 16.5832H57.5343C60.3218 16.5832 62.5896 18.851 62.5896 21.6386V23.926C56.1057 19.4776 46.9723 19.9628 40.9898 25.9455C38.2807 28.6544 36.5992 32.1171 36.1408 35.8606H18.8788V35.8607ZM30.8098 63.2585C29.9523 64.116 28.5642 64.1161 27.7066 63.2585C27.2921 62.8439 27.0639 62.293 27.0639 61.7069C27.0639 61.1207 27.2921 60.5696 27.7066 60.1552L33.4992 54.3626L36.6025 57.4658L30.8098 63.2585ZM39.1714 54.8969L38.0525 56.0158L34.9493 52.9126L36.0682 51.7937C36.1076 51.7544 36.1591 51.7347 36.2106 51.7347C36.2622 51.7347 36.3137 51.7544 36.353 51.7935C36.3532 51.7937 36.3534 51.7939 36.3537 51.7941L39.1714 54.6118C39.2499 54.6905 39.2499 54.8183 39.1714 54.8969ZM39.9455 52.4859L38.4791 51.0194L40.2793 49.2192C40.5079 49.477 40.7441 49.7296 40.9898 49.9752C41.236 50.2214 41.4887 50.4574 41.746 50.6853L39.9455 52.4859ZM42.4398 48.5253C39.6178 45.7034 38.0637 41.9513 38.0637 37.9605C38.0637 33.9696 39.6178 30.2175 42.4398 27.3956C48.2785 21.5568 57.7299 21.556 63.5694 27.3956C69.4083 33.2344 69.4091 42.6857 63.5694 48.5253C57.7304 54.3642 48.2794 54.3649 42.4398 48.5253Z" fill="white"></path><path d="M64.2536 39.3683C63.7003 39.248 63.1539 39.5988 63.0338 40.1524C62.6165 42.0711 61.6584 43.823 60.2627 45.2185C56.2513 49.2298 49.7584 49.2302 45.7465 45.2185C41.7443 41.2163 41.7443 34.7044 45.7465 30.7023C49.758 26.6908 56.2509 26.6904 60.2627 30.7023C61.6569 32.0964 62.6147 33.8464 63.0327 35.763C63.1532 36.3163 63.6997 36.6676 64.2529 36.5464C64.8062 36.4259 65.1569 35.8795 65.0363 35.3262C64.5345 33.025 63.3853 30.9247 61.7129 29.2522C56.9 24.4393 49.11 24.4388 44.2966 29.2522C39.4949 34.0539 39.4949 41.8668 44.2966 46.6685C49.0981 51.4701 56.9109 51.4704 61.7129 46.6685C63.387 44.9944 64.5367 42.8918 65.0376 40.5881C65.1578 40.0348 64.8069 39.4888 64.2536 39.3683Z" fill="white"></path></svg>