<svg class="MuiSvgIcon-root MuiSvgIcon-fontSizeMedium css-vekkpm" focusable="false" aria-hidden="true" viewBox="0 0 70 70" fill="none" xmlns="http://www.w3.org/2000/svg"><g clip-path="url(#clip0_7037_27328)"><path d="M66.5 37.4989V35C66.498 33.0678 64.9321 31.502 63 31.5C62.6016 31.5039 62.207 31.5767 61.8333 31.7149V31.5C61.8333 29.5669 60.2664 28 58.3333 28C56.4003 28 54.8333 29.5669 54.8333 31.5V31.6993C54.047 31.4192 53.1857 31.4346 52.4099 31.7429C51.8197 28.952 49.5027 26.8562 46.6667 26.5485V22.1666C46.6639 19.5905 44.5761 17.5027 42 17.5C41.159 17.504 40.335 17.7378 39.6171 18.1759C39.3607 15.626 37.0857 13.7668 34.5358 14.0231C32.3403 14.2439 30.6039 15.9804 30.3831 18.1759C29.6651 17.7377 28.8412 17.504 28.0001 17.5C25.424 17.5027 23.3363 19.5905 23.3335 22.1666V33.9244C22.0484 34.1298 20.8407 34.672 19.8335 35.4958V35C19.8325 33.0659 18.2637 31.4989 16.3297 31.5C15.9336 31.5001 15.5404 31.5676 15.1668 31.6993V31.5C15.1668 29.5669 13.5998 28 11.6668 28C9.73379 28 8.16681 29.5669 8.16681 31.5V31.7149C7.79319 31.5767 7.39856 31.5039 7.00015 31.5C5.068 31.502 3.50219 33.0678 3.50015 35V37.4989C1.44492 38.0277 0.00627101 39.8779 1.73819e-07 42V51.0473C-0.000291493 53.491 0.366479 55.9211 1.08806 58.2558L1.77742 60.4867C2.02956 61.309 2.19581 62.1554 2.2734 63.0121C1.65579 63.0405 1.16885 63.5483 1.16667 64.1666V68.8333C1.16652 69.4774 1.6886 69.9998 2.33275 70H2.33333H67.6667C68.3108 70.0001 68.8332 69.478 68.8333 68.8339V68.8333V64.1666C68.8311 63.5483 68.3444 63.0405 67.7266 63.0121C67.8042 62.1553 67.9704 61.309 68.2226 60.4867L68.9119 58.2558C69.6335 55.9211 70.0003 53.4912 70 51.0473V42C69.9937 39.8779 68.5551 38.0277 66.5 37.4989ZM19.8333 40.0927C20.0149 38.1892 21.4487 36.6429 23.3333 36.3186V42.8783H25.6667V22.1666C25.6667 20.8779 26.7113 19.8333 28 19.8333C29.2887 19.8333 30.3333 20.8779 30.3333 22.1666V38.5H32.6667V18.6666C32.6667 17.3779 33.7113 16.3333 35 16.3333C36.2887 16.3333 37.3333 17.3779 37.3333 18.6666V38.5H39.6667V22.1666C39.6667 20.8779 40.7113 19.8333 42 19.8333C43.2887 19.8333 44.3333 20.8779 44.3333 22.1666V38.5H46.6667V28.938C48.5421 29.2093 49.9882 30.7288 50.1667 32.6153V51.4142L49.1242 60.6666H22.9825L22.316 58.8437C20.6709 54.3532 19.8306 49.6078 19.8335 44.8255V40.0927H19.8333ZM18.6667 67.6666H3.5V65.3333H18.6667V67.6666ZM19.8333 60.6666C19.1892 60.6665 18.6668 61.1886 18.6667 61.8327V61.8333V63H4.61854C4.53323 61.9135 4.32819 60.8399 4.00692 59.7985L3.31771 57.5677C2.66481 55.4558 2.3329 53.2578 2.33333 51.0473V42C2.3361 41.1702 2.7806 40.4047 3.5 39.9912V51.3333H5.83333V35C5.83333 34.3557 6.35571 33.8333 7 33.8333C7.64429 33.8333 8.16667 34.3557 8.16667 35V49H10.5V31.5C10.5 30.8557 11.0224 30.3333 11.6667 30.3333C12.311 30.3333 12.8333 30.8557 12.8333 31.5V49H15.1667V35C15.1667 34.3557 15.689 33.8333 16.3333 33.8333C16.9776 33.8333 17.5 34.3557 17.5 35V44.8255C17.4971 49.8814 18.3855 54.8983 20.1244 59.6458L20.4976 60.6666H19.8333ZM51.3333 67.6666H21V63H51.3333V67.6666ZM66.5 67.6666H53.6667V65.3333H66.5V67.6666ZM67.6667 51.0473C67.6671 53.2578 67.3352 55.4558 66.6823 57.5677L65.9929 59.7985C65.6718 60.8399 65.4666 61.9135 65.3815 63H53.6667V61.8333C53.6668 61.1891 53.1447 60.6668 52.5006 60.6666H52.5H51.4722L52.4926 51.6112L52.5 51.3333V35C52.5 34.3557 53.0224 33.8333 53.6667 33.8333C54.311 33.8333 54.8333 34.3557 54.8333 35V49H57.1667V31.5C57.1667 30.8557 57.689 30.3333 58.3333 30.3333C58.9776 30.3333 59.5 30.8557 59.5 31.5V49H61.8333V35C61.8333 34.3557 62.3557 33.8333 63 33.8333C63.6443 33.8333 64.1667 34.3557 64.1667 35V51.3333H66.5V39.9912C67.2194 40.4048 67.6639 41.1703 67.6667 42V51.0473Z" fill="white"></path><path d="M28.8955 6.53692C18.951 8.85975 11.1861 16.6246 8.86328 26.5692L11.1362 27.0978C14.2158 13.9178 27.3965 5.72988 40.5763 8.80929C49.6549 10.9304 56.7436 18.0191 58.8647 27.0977L61.1377 26.569C57.766 12.1339 43.3307 3.16525 28.8955 6.53692Z" fill="white"></path><path d="M36.1654 0H33.832V3.5H36.1654V0Z" fill="white"></path><path d="M66.5 24.5H63V26.8333H66.5V24.5Z" fill="white"></path><path d="M7 24.5H3.5V26.8333H7V24.5Z" fill="white"></path><path d="M14.8257 6.03491L13.1758 7.68481L15.6506 10.1597L17.3005 8.50976L14.8257 6.03491Z" fill="white"></path><path d="M54.1506 6.0337L51.6758 8.50854L53.3257 10.1584L55.8005 7.68359L54.1506 6.0337Z" fill="white"></path></g><defs><clipPath id="clip0_7037_27328"><rect width="70" height="70" fill="white"></rect></clipPath></defs></svg>