<svg class="MuiSvgIcon-root MuiSvgIcon-fontSizeMedium css-vekkpm" focusable="false" aria-hidden="true" viewBox="0 0 70 70" fill="none" xmlns="http://www.w3.org/2000/svg"><path fill-rule="evenodd" clip-rule="evenodd" d="M34.9997 67.4023C34.863 67.4023 34.863 67.4023 34.7262 67.4023L6.28875 59.0624C5.87859 58.9257 5.60515 58.5156 5.60515 58.1054V44.5702C5.60515 44.0234 6.01531 43.6132 6.56218 43.6132C7.10906 43.6132 7.51922 44.0234 7.51922 44.5702V57.4218L34.0427 65.2148V40.8788L6.28875 32.8124C5.74187 32.6757 5.46843 32.1288 5.60515 31.582C5.74187 31.0351 6.28875 30.7616 6.83562 30.8984L35.2731 39.2382C35.6833 39.3749 35.9567 39.7851 35.9567 40.1952V66.4452C35.9567 66.7187 35.82 66.9921 35.5466 67.2656C35.4098 67.2656 35.1364 67.4023 34.9997 67.4023Z" fill="white"></path><path fill-rule="evenodd" clip-rule="evenodd" d="M35 67.4023C34.7266 67.4023 34.5898 67.2656 34.4531 67.2656C34.1797 66.9921 34.043 66.7187 34.043 66.4452V40.1952C34.043 39.7851 34.3164 39.3749 34.7266 39.2382L63.1641 30.8984C63.7109 30.7616 64.2578 31.0351 64.3945 31.582C64.5312 32.1288 64.2578 32.6757 63.7109 32.8124L35.957 40.8788V65.2148L62.4805 57.4218V44.5702C62.4805 44.0234 62.8906 43.6132 63.4375 43.6132C63.9844 43.6132 64.3945 44.0234 64.3945 44.5702V58.1054C64.3945 58.5156 64.1211 58.9257 63.7109 59.0624L35.2734 67.4023C35.1367 67.4023 35.1367 67.4023 35 67.4023Z" fill="white"></path><path fill-rule="evenodd" clip-rule="evenodd" d="M63.4372 32.8124C63.3005 32.8124 63.3005 32.8124 63.1637 32.8124L42.6559 26.6601C42.1091 26.5234 41.8356 25.9765 41.9723 25.4296C42.1091 24.8827 42.6559 24.6093 43.2028 24.746L63.7106 30.8984C64.2575 31.0351 64.5309 31.582 64.3942 32.1288C64.2575 32.539 63.8473 32.8124 63.4372 32.8124ZM6.56218 32.8124C6.15203 32.8124 5.74187 32.539 5.60515 32.1288C5.46843 31.582 5.74187 31.0351 6.28875 30.8984L26.7966 24.746C27.3434 24.6093 27.8903 24.8827 28.027 25.4296C28.1637 25.9765 27.8903 26.5234 27.3434 26.6601L6.83562 32.8124C6.6989 32.8124 6.6989 32.8124 6.56218 32.8124Z" fill="white"></path><path fill-rule="evenodd" clip-rule="evenodd" d="M29.3955 52.2265C29.2588 52.2265 29.2588 52.2265 29.1221 52.2265L0.68457 43.7499C0.411133 43.6132 0.137695 43.4765 0.137695 43.203C0.000976562 42.9296 0.000976562 42.6562 0.137695 42.3827L5.74316 31.4452C5.87988 31.0351 6.42676 30.7616 6.83691 30.8984L35.2744 39.2382C35.5479 39.3749 35.8213 39.5116 35.8213 39.7851C35.958 40.0585 35.958 40.332 35.8213 40.6054L30.2158 51.6796C30.0791 52.0898 29.8057 52.2265 29.3955 52.2265ZM2.3252 42.246L28.8486 50.1757L33.6338 40.7421L7.11035 32.9491L2.3252 42.246Z" fill="white"></path><path fill-rule="evenodd" clip-rule="evenodd" d="M40.6064 52.2266C40.1963 52.2266 39.9229 52.0898 39.7861 51.6797L34.1807 40.6055C34.0439 40.332 34.0439 40.0586 34.1807 39.7852C34.1807 39.5117 34.4541 39.375 34.7275 39.2383L63.165 30.8984C63.5752 30.8984 64.1221 31.0352 64.2588 31.4453L69.8643 42.3828C70.001 42.6562 70.001 42.9297 69.8643 43.2031C69.8643 43.4766 69.5908 43.6133 69.3174 43.75L40.8799 52.2266C40.7432 52.2266 40.7432 52.2266 40.6064 52.2266ZM36.3682 40.7422L41.1533 50.1758L67.6768 42.2461L62.8916 32.9492L36.3682 40.7422Z" fill="white"></path><path fill-rule="evenodd" clip-rule="evenodd" d="M35 35.8203C34.7266 35.8203 34.4531 35.6836 34.3164 35.5469L23.6523 23.1055L20.7812 19.6875C19.1406 17.9102 18.3203 15.4492 18.3203 12.8516C18.3203 10.3906 19.1406 7.92969 20.7812 6.01562C22.2852 4.23828 24.3359 3.14453 26.6602 3.14453C28.9844 3.14453 31.1719 4.23828 32.8125 6.01562V6.15234L35 8.61328L37.1875 6.15234V6.01562C38.8281 4.23828 40.8789 3.14453 43.2031 3.14453H43.3398C45.6641 3.14453 47.7148 4.23828 49.2188 6.01562C50.8594 7.92969 51.6797 10.3906 51.6797 12.8516C51.6797 15.4492 50.8594 17.9102 49.2188 19.6875L46.3477 23.1055L35.6836 35.5469C35.5469 35.6836 35.2734 35.8203 35 35.8203ZM25.0195 21.875L35 33.3594L44.9805 21.875L47.8516 18.457C47.8516 18.3203 47.8516 18.3203 47.8516 18.3203C50.4492 15.4492 50.4492 10.3906 47.8516 7.38281C46.6211 5.87891 44.9805 5.19531 43.3398 5.19531C41.5625 5.05859 39.9219 5.87891 38.5547 7.38281L35.6836 10.8008C35.5469 10.9375 35.2734 11.0742 35 11.0742C34.7266 11.0742 34.4531 10.9375 34.3164 10.8008L31.4453 7.38281C30.0781 5.87891 28.4375 5.05859 26.6602 5.19531C25.0195 5.19531 23.3789 5.87891 22.1484 7.38281C19.5508 10.3906 19.5508 15.4492 22.1484 18.3203V18.457L25.0195 21.875Z" fill="white"></path><path fill-rule="evenodd" clip-rule="evenodd" d="M14.356 23.2422C14.0825 23.2422 13.9458 23.2422 13.8091 23.1055L10.938 20.918L8.06689 23.1055C7.79346 23.2422 7.24658 23.2422 6.97314 23.1055C6.56299 22.832 6.42627 22.4219 6.56299 22.0117L7.65674 18.5938L4.78564 16.543C4.37549 16.2695 4.23877 15.8594 4.37549 15.4492C4.51221 15.0391 4.92236 14.7656 5.33252 14.7656H8.88721L9.98096 11.3477C10.1177 10.9375 10.5278 10.6641 10.938 10.6641C11.3481 10.6641 11.7583 10.9375 11.895 11.3477L12.8521 14.6289L16.4067 14.7656C16.8169 14.7656 17.2271 15.0391 17.3638 15.4492C17.3638 15.8594 17.2271 16.2695 16.9536 16.4062L14.2192 18.5938L15.313 22.0117C15.313 22.4219 15.1763 22.832 14.9028 23.1055C14.7661 23.2422 14.4927 23.2422 14.356 23.2422ZM10.938 18.7305C11.0747 18.7305 11.3481 18.7305 11.4849 18.8672L12.5786 19.6875L12.1685 18.457C12.0317 18.0469 12.1685 17.6367 12.5786 17.3633L13.6724 16.543H12.1685C11.7583 16.543 11.3481 16.2695 11.2114 15.8594L10.938 14.7656L10.5278 15.9961C10.3911 16.4062 9.98096 16.6797 9.5708 16.6797H8.34033L9.29736 17.3633C9.5708 17.6367 9.84424 18.0469 9.70752 18.457L9.29736 19.8242L10.3911 19.0039C10.5278 18.7305 10.6646 18.7305 10.938 18.7305Z" fill="white"></path><path fill-rule="evenodd" clip-rule="evenodd" d="M63.1646 23.2422C62.8911 23.2422 62.7544 23.2422 62.6177 23.1055L59.7466 20.918L56.8755 23.1055C56.6021 23.2422 56.0552 23.2422 55.7817 23.1055C55.3716 22.832 55.2349 22.4219 55.3716 22.0117L56.4653 18.5938L53.5942 16.543C53.1841 16.2695 53.0474 15.8594 53.1841 15.4492C53.3208 15.0391 53.731 14.7656 54.1411 14.7656H57.6958L58.7896 11.3477C58.9263 10.9375 59.3364 10.6641 59.7466 10.6641C60.1567 10.6641 60.5669 10.9375 60.7036 11.3477L61.7974 14.6289L65.3521 14.7656C65.7622 14.7656 66.1724 15.0391 66.3091 15.4492C66.4458 15.8594 66.1724 16.2695 65.8989 16.543L63.0278 18.5938L64.1216 22.0117C64.2583 22.4219 63.9849 22.832 63.7114 23.1055C63.5747 23.2422 63.3013 23.2422 63.1646 23.2422ZM59.7466 18.7305C59.8833 18.7305 60.1567 18.7305 60.2935 18.8672L61.3872 19.6875L60.9771 18.457C60.8403 18.0469 60.9771 17.6367 61.3872 17.3633L62.481 16.543H61.1138C60.7036 16.543 60.2935 16.2695 60.1567 15.8594L59.7466 14.6289L59.3364 15.9961C59.1997 16.4062 58.7896 16.6797 58.3794 16.6797H57.1489L58.106 17.3633C58.3794 17.6367 58.6528 18.0469 58.5161 18.457L58.106 19.6875L59.1997 18.8672C59.3364 18.7305 59.4731 18.7305 59.7466 18.7305Z" fill="white"></path><path fill-rule="evenodd" clip-rule="evenodd" d="M12.7148 8.33984C11.0742 8.33984 9.70703 7.10938 9.70703 5.46875C9.70703 3.82812 11.0742 2.59766 12.7148 2.59766C14.3555 2.59766 15.5859 3.82812 15.5859 5.46875C15.5859 7.10938 14.3555 8.33984 12.7148 8.33984ZM12.7148 4.51172C12.168 4.51172 11.6211 4.92188 11.6211 5.46875C11.6211 6.01562 12.168 6.42578 12.7148 6.42578C13.2617 6.42578 13.6719 6.01562 13.6719 5.46875C13.6719 4.92188 13.2617 4.51172 12.7148 4.51172Z" fill="white"></path><path fill-rule="evenodd" clip-rule="evenodd" d="M56.0547 8.33984C54.4141 8.33984 53.1836 7.10938 53.1836 5.46875C53.1836 3.82812 54.4141 2.59766 56.0547 2.59766C57.6953 2.59766 58.9258 3.82812 58.9258 5.46875C58.9258 7.10938 57.6953 8.33984 56.0547 8.33984ZM56.0547 4.51172C55.5078 4.51172 55.0977 4.92188 55.0977 5.46875C55.0977 6.01562 55.5078 6.42578 56.0547 6.42578C56.6016 6.42578 57.0117 6.01562 57.0117 5.46875C57.0117 4.92188 56.6016 4.51172 56.0547 4.51172Z" fill="white"></path></svg>