<svg class="MuiSvgIcon-root MuiSvgIcon-fontSizeMedium css-vekkpm" focusable="false" aria-hidden="true" viewBox="0 0 70 70" fill="none" xmlns="http://www.w3.org/2000/svg"><path d="M26.25 45.0373V34.4531C26.25 32.3422 24.5328 30.625 22.4219 30.625C21.8323 30.625 21.28 30.7705 20.7812 31.0089V24.6094C20.7812 22.4984 19.0641 20.7812 16.9531 20.7812C16.3636 20.7812 15.8112 20.9267 15.3125 21.1652V18.0469C15.3125 15.9359 13.5953 14.2188 11.4844 14.2188C9.70703 14.2188 8.22062 15.4437 7.79297 17.0887C7.11703 16.6622 6.32406 16.4062 5.46875 16.4062C3.05594 16.4062 1.09375 18.3684 1.09375 20.7812V39.375C1.09375 39.5577 1.13969 39.7381 1.22719 39.8989L7.78969 51.9302C7.84 52.0209 7.90344 52.1063 7.97672 52.1795L16.5397 60.7425C17.15 61.3528 17.5 62.1983 17.5 63.0623V67.8125C17.5 68.4162 17.99 68.9062 18.5938 68.9062H31.7188C32.3225 68.9062 32.8125 68.4162 32.8125 67.8125V54.2248C32.8125 52.8347 32.2897 51.5091 31.3414 50.493L26.25 45.0373ZM22.4219 32.8125C23.3264 32.8125 24.0625 33.5486 24.0625 34.4531V42.6934L20.7812 39.1781V34.4531C20.7812 33.5486 21.5173 32.8125 22.4219 32.8125ZM16.9531 22.9688C17.8577 22.9688 18.5938 23.7048 18.5938 24.6094V34.4531V36.8342L17.8544 36.0423C17.2364 35.3806 16.3625 35 15.4558 35H15.3125V24.6094C15.3125 23.7048 16.0486 22.9688 16.9531 22.9688ZM9.84375 18.0469C9.84375 17.1423 10.5798 16.4062 11.4844 16.4062C12.3889 16.4062 13.125 17.1423 13.125 18.0469V24.6094V35.8509C12.6394 36.2884 12.2773 36.8627 12.1209 37.52L9.84375 34.6216V20.7812V18.0469ZM30.625 66.7188H19.6875V63.0623C19.6875 61.6022 19.1187 60.2284 18.0862 59.1959L9.63484 50.7445L3.28125 39.0961V20.7812C3.28125 19.5748 4.26234 18.5938 5.46875 18.5938C6.67516 18.5938 7.65625 19.5748 7.65625 20.7812V35C7.65625 35.245 7.73828 35.4823 7.89031 35.6759L19.9216 50.9884L21.6409 49.6377L14.2188 40.1898V38.2812C14.2188 37.6786 14.7098 37.1875 15.3125 37.1875H15.4558C15.7577 37.1875 16.0486 37.3144 16.2553 37.5342L29.7434 51.9848C30.3111 52.5952 30.625 53.3903 30.625 54.2248V66.7188Z" fill="white"></path><path d="M64.5312 16.4062C63.6759 16.4062 62.883 16.6622 62.207 17.0887C61.7794 15.4437 60.293 14.2188 58.5156 14.2188C56.4047 14.2188 54.6875 15.9359 54.6875 18.0469V21.1652C54.1887 20.9267 53.6364 20.7812 53.0469 20.7812C50.9359 20.7812 49.2188 22.4984 49.2188 24.6094V31.0089C48.72 30.7705 48.1677 30.625 47.5781 30.625C45.4672 30.625 43.75 32.3422 43.75 34.4531V45.0373L38.6586 50.493C37.7103 51.5091 37.1875 52.8347 37.1875 54.2248V67.8125C37.1875 68.4162 37.6775 68.9062 38.2812 68.9062H51.4062C52.01 68.9062 52.5 68.4162 52.5 67.8125V63.0623C52.5 62.1983 52.85 61.3539 53.4603 60.7425L62.0233 52.1795C62.0966 52.1063 62.16 52.0209 62.2103 51.9302L68.7728 39.8989C68.8603 39.7381 68.9062 39.5577 68.9062 39.375V20.7812C68.9062 18.3684 66.9441 16.4062 64.5312 16.4062ZM56.875 18.0469C56.875 17.1423 57.6111 16.4062 58.5156 16.4062C59.4202 16.4062 60.1562 17.1423 60.1562 18.0469V20.7812V34.6216L57.8791 37.5189C57.7227 36.8616 57.3606 36.2884 56.875 35.8498V24.6094V18.0469ZM51.4062 24.6094C51.4062 23.7048 52.1423 22.9688 53.0469 22.9688C53.9514 22.9688 54.6875 23.7048 54.6875 24.6094V35H54.5442C53.6375 35 52.7636 35.3806 52.1456 36.0423L51.4062 36.8353V34.4531V24.6094ZM45.9375 34.4531C45.9375 33.5486 46.6736 32.8125 47.5781 32.8125C48.4827 32.8125 49.2188 33.5486 49.2188 34.4531V39.1781L45.9375 42.6934V34.4531ZM66.7188 39.0961L60.3652 50.7434L51.9138 59.1948C50.8813 60.2284 50.3125 61.6011 50.3125 63.0623V66.7188H39.375V54.2248C39.375 53.3903 39.6889 52.5952 40.2577 51.9859L53.7458 37.5353C53.9514 37.3144 54.2423 37.1875 54.5442 37.1875H54.6875C55.2902 37.1875 55.7812 37.6786 55.7812 38.2812V40.1898L48.3591 49.6366L50.0784 50.9873L62.1097 35.6748C62.2617 35.4823 62.3438 35.245 62.3438 35V20.7812C62.3438 19.5748 63.3248 18.5938 64.5312 18.5938C65.7377 18.5938 66.7188 19.5748 66.7188 20.7812V39.0961Z" fill="white"></path><path d="M51.3874 10.1042C51.2036 7.15324 49.7238 4.49434 47.3296 2.80887C43.835 0.35012 39.1144 0.564495 35.8496 3.32949L35.0008 4.04918L34.151 3.32949C30.8861 0.564495 26.1666 0.35012 22.671 2.80887C20.2768 4.49434 18.7969 7.15324 18.6132 10.1042C18.4283 13.0639 19.5702 15.8956 21.7468 17.8742L34.2647 29.259C34.4736 29.4482 34.7372 29.5434 35.0008 29.5434C35.2644 29.5434 35.528 29.4482 35.7369 29.259L48.2549 17.8742C50.4304 15.8956 51.5722 13.0639 51.3874 10.1042ZM35.0008 26.9731L23.2189 16.2576C21.5368 14.7275 20.6541 12.5345 20.7974 10.242C20.9396 7.95715 22.0825 5.89981 23.931 4.59934C25.1768 3.72215 26.6249 3.28903 28.0708 3.28903C29.7355 3.28903 31.3969 3.86324 32.7368 4.99965L34.2932 6.31871C34.7011 6.66324 35.2994 6.66324 35.7074 6.31871L37.2649 4.99856C39.7685 2.87778 43.391 2.71153 46.0707 4.59824C47.9191 5.89871 49.0621 7.95606 49.2043 10.2409C49.3475 12.5345 48.4649 14.7275 46.7827 16.2565L35.0008 26.9731Z" fill="white"></path></svg>