<svg class="MuiSvgIcon-root MuiSvgIcon-fontSizeMedium css-x4ju0l" focusable="false" aria-hidden="true" viewBox="0 0 402 201" fill="none" xmlns="http://www.w3.org/2000/svg"><path d="M-1.50077e-05 -1.70215e-05C-1.4372e-05 53.3085 21.1767 104.434 58.8715 142.128C96.5663 179.823 147.691 201 201 201C254.308 201 305.434 179.823 343.128 142.128C380.823 104.434 402 53.3085 402 3.92199e-05L314.366 9.7473e-06C314.366 30.0665 302.422 58.9016 281.162 80.1617C259.902 101.422 231.066 113.366 201 113.366C170.933 113.366 142.098 101.422 120.838 80.1617C99.578 58.9015 87.6342 30.0665 87.6342 -2.80774e-06L-1.50077e-05 -1.70215e-05Z" fill="#EEF2F0" fill-opacity="0.08"></path></svg>